Fly_normalized_Motion_pl02
version=1
nRows=16
nColumns=43
inDegrees=yes
endheader
time		pelvis_tilt		pelvis_list		pelvis_rotation		pelvis_tx		pelvis_ty		pelvis_tz		hip_flexion_r		hip_adduction_r		hip_rotation_r		knee_angle_r		ankle_angle_r		subtalar_angle_r		mtp_angle_r		hip_flexion_l		hip_adduction_l		hip_rotation_l		knee_angle_l		ankle_angle_l		subtalar_angle_l		mtp_angle_l		lumbar_extension		lumbar_bending		lumbar_rotation		neck_flexion		neck_lateral_bending		neck_rotation		arm_flex_r		arm_add_r		arm_rot_r		elbow_flex_r		pro_sup_r		wrist_flex_r		wrist_dev_r		hand_finger_flex_r		arm_flex_l		arm_add_l		arm_rot_l		elbow_flex_l		pro_sup_l		wrist_flex_l		wrist_dev_l		hand_finger_flex_l		
3.237500		2.294865		-24.145175		89.872793		-0.012708		1.694413		1.338678		70.246602		-3.927150		3.423023		-120.281325		-7.632956		-0.360125		32.245166		56.491025		-10.434514		5.302070		-119.959114		4.169286		12.019261		23.522075		-31.002330		-0.396320		2.423151		12.784302		6.943852		0.718805		112.534399		-5.638364		30.033203		47.106198		103.073456		-1.577045		-14.314430		-39.958754		106.735264		-5.571194		14.180912		50.050468		110.392353		-16.592343		-8.486636		-18.729504		
3.241515		2.234971		-24.091676		89.395764		-0.012134		1.694233		1.331123		70.514135		-3.515952		3.037877		-119.709194		-8.373692		-2.445585		32.221052		56.322563		-10.705313		5.250532		-119.364021		4.054442		14.328643		24.050885		-30.558861		-0.685610		2.949899		11.980074		6.971530		0.450890		110.771505		-6.204300		29.861946		47.959852		104.724974		-1.654225		-13.606918		-39.832385		105.263228		-5.940489		14.171413		50.597605		111.308716		-15.219120		-7.699181		-18.812005		
3.245530		2.083555		-23.834785		89.191125		-0.012506		1.694314		1.323602		70.633084		-3.524278		2.593566		-119.149489		-8.432889		-3.666342		32.205905		56.034012		-10.487859		5.168235		-118.731037		4.406505		15.610033		24.522549		-30.426394		-0.834847		3.184936		11.458859		6.917774		0.346217		109.185518		-6.814026		29.891382		48.599054		105.751707		-1.525343		-13.303005		-39.695753		103.859625		-6.406458		14.359391		51.050768		112.045332		-14.363660		-7.479994		-18.901038		
3.249545		1.883124		-23.483568		89.031356		-0.012967		1.694412		1.316270		70.688661		-3.620321		2.094655		-118.585160		-8.473648		-4.360078		32.200234		55.742513		-10.179731		4.967983		-118.101330		4.821877		16.265860		24.808236		-30.433736		-1.001623		3.252672		11.192940		6.833835		0.250726		107.762399		-7.300752		30.119908		48.809053		106.142161		-1.363254		-13.205372		-39.659830		102.625844		-6.874530		14.674219		51.159794		112.428852		-13.938029		-7.491213		-18.866974		
3.253561		1.660323		-23.275202		88.583375		-0.012822		1.694557		1.308649		70.876476		-3.405205		1.817602		-117.894629		-8.746272		-5.875440		32.185540		55.386995		-10.159738		4.673672		-117.254181		6.211476		17.783604		25.674049		-30.297045		-1.380788		3.586326		10.370760		6.861234		0.020603		105.842226		-8.038853		29.893730		49.793307		107.011669		-1.284364		-12.839652		-39.893021		101.066191		-7.577801		14.966061		51.941876		113.462200		-13.013924		-7.446400		-18.704834		
3.257576		1.480591		-23.088699		88.214173		-0.012640		1.694389		1.301426		71.141204		-3.208779		1.437340		-117.214048		-8.972125		-6.929347		32.168457		55.241434		-10.145506		4.413560		-116.461905		6.971280		18.738674		26.576440		-30.170872		-1.705500		3.966277		10.001275		6.951064		-0.087761		104.110958		-8.693400		29.580072		50.354586		107.883819		-1.116215		-12.350501		-40.165992		99.641639		-7.999555		15.057917		52.397569		114.560302		-12.167067		-7.248013		-18.621208		
3.261591		1.389176		-22.773067		88.079103		-0.012798		1.694397		1.294261		71.247943		-3.189594		0.891425		-116.481117		-8.866439		-7.370415		32.163323		55.094601		-10.041876		4.241184		-115.618754		7.097086		18.462870		26.773016		-30.253750		-1.826766		4.113155		9.773824		6.855266		-0.208812		102.538729		-9.319568		29.602432		50.697648		107.994140		-1.027799		-12.394387		-40.257379		98.315037		-8.593574		15.380127		52.714307		114.984692		-11.858566		-7.353972		-18.545425		
3.265606		1.191024		-23.071787		87.623854		-0.012263		1.693318		1.287111		72.052485		-2.861616		0.629481		-115.756387		-9.299809		-8.529275		32.095477		55.568247		-10.202570		3.700702		-114.725595		6.643039		16.628467		29.114478		-29.592176		-2.270604		4.577162		9.256023		7.160023		-0.465989		100.226897		-10.159517		28.494403		52.170095		109.088736		0.116219		-11.184420		-40.919930		96.413141		-8.703717		14.270708		53.755037		118.916457		-9.981196		-6.351654		-18.683712		
3.269621		1.147251		-22.731677		87.547465		-0.012124		1.693111		1.280204		72.170969		-2.782305		0.046321		-115.007561		-9.121866		-8.585740		32.090080		55.473502		-10.219924		3.628208		-113.762266		6.540581		16.259769		29.227445		-29.775823		-2.350137		4.740406		9.339004		7.029935		-0.589230		98.792948		-10.650218		28.407752		52.159169		108.998781		0.105041		-11.267971		-41.026869		95.208338		-9.282431		14.570285		53.843107		119.149717		-9.792516		-6.536824		-18.701027		
3.273636		1.348915		-22.528113		87.346814		-0.011871		1.692881		1.272608		72.287904		-2.425554		-0.650462		-114.102603		-8.907855		-8.744469		32.080921		55.502826		-10.620243		3.409441		-112.792251		5.871102		14.173966		29.219298		-29.816370		-2.282497		5.242422		8.918879		6.851474		-0.887997		96.631485		-11.360760		27.667689		53.233315		108.605723		0.059879		-11.279347		-41.176777		93.404058		-10.201398		14.869983		54.892032		119.829077		-9.546777		-6.760750		-18.790406		
3.277652		1.452949		-22.454995		87.233835		-0.011839		1.692068		1.265574		72.622560		-2.217074		-1.257601		-113.259704		-8.796781		-8.759795		32.070409		55.814522		-10.850956		3.152124		-111.847465		5.220185		11.762208		29.098522		-29.720061		-2.251879		5.591053		8.761731		6.776779		-1.091980		94.693562		-11.991863		27.040137		53.945759		108.281128		0.302298		-10.727728		-41.212458		91.783122		-10.774607		14.818944		55.487265		120.737371		-9.275672		-6.503860		-18.987993		
3.281667		1.353655		-22.156086		87.219853		-0.011800		1.691297		1.258972		72.779116		-2.257178		-1.693103		-112.473425		-8.730689		-8.746345		32.069435		55.933167		-10.837960		3.061314		-110.853011		5.152656		11.384558		29.042765		-29.883524		-2.339111		5.627121		8.967522		6.713028		-1.121062		93.313640		-12.463912		27.110789		53.643595		108.252345		0.404171		-10.532897		-41.210076		90.652719		-11.245105		14.923107		55.182981		120.896367		-9.175598		-6.388506		-19.003109		
3.285682		1.511687		-21.954454		87.212108		-0.012092		1.690748		1.251526		72.849829		-2.176051		-2.311152		-111.498348		-8.308754		-8.287262		32.067156		56.064324		-11.008895		2.857949		-109.783348		5.001927		9.555053		28.809395		-30.016581		-2.196489		5.872105		8.481898		6.620388		-1.311845		91.020291		-13.143628		26.160391		54.748783		108.037188		0.291095		-10.382575		-41.364182		88.785913		-12.183552		14.998757		56.204672		121.464544		-9.213668		-6.468167		-19.223489		
3.289697		1.461651		-22.263928		87.359770		-0.012923		1.688616		1.244717		73.638339		-2.430909		-2.867962		-110.700586		-7.484497		-6.657296		32.050078		56.995287		-10.785235		2.570259		-108.908555		4.289257		6.110427		27.810481		-29.491459		-2.117092		5.843692		8.411880		6.691121		-1.435083		88.665902		-13.603753		24.700130		55.719393		108.696791		1.296216		-8.752796		-41.348283		86.922387		-12.583582		14.481835		56.942676		123.395024		-8.771059		-5.165572		-20.180206		
3.293712		1.450855		-22.010796		87.451689		-0.013275		1.687597		1.237765		73.708216		-2.541205		-3.262857		-109.783874		-7.233246		-6.213242		32.044391		57.154331		-10.779810		2.376685		-107.795059		4.350695		5.441159		27.579055		-29.676506		-2.053258		5.837327		8.329052		6.612614		-1.503127		86.799359		-14.091614		24.128211		55.910240		108.785858		1.355077		-8.578166		-41.459003		85.459793		-13.278920		14.436084		57.119973		123.785662		-8.669012		-5.021619		-20.431071		
3.297727		1.482153		-21.680641		87.541368		-0.013419		1.686393		1.230655		73.662772		-2.566930		-3.657195		-108.856395		-6.994766		-5.708499		32.038113		57.250854		-10.831581		2.269943		-106.770796		4.484345		4.987427		27.428481		-29.912097		-1.991757		5.821757		8.314791		6.506170		-1.557736		84.869781		-14.496381		23.537015		55.950716		108.819341		1.303639		-8.562663		-41.584296		83.976942		-14.009448		14.415422		57.223171		123.958454		-8.639485		-4.931785		-20.631623		
